<svg width="38" height="59" viewBox="0 0 38 59" fill="none" xmlns="http://www.w3.org/2000/svg">
<path fill-rule="evenodd" clip-rule="evenodd" d="M38 8.29585C38 12.8775 34.2856 16.5917 29.7042 16.5917C25.1225 16.5917 21.4083 12.8775 21.4083 8.29585C21.4083 3.71419 25.1225 0 29.7042 0C34.2856 0 38 3.71419 38 8.29585ZM33.7183 8.29585C33.7183 10.5128 31.921 12.31 29.7042 12.31C27.4873 12.31 25.6901 10.5128 25.6901 8.29585C25.6901 6.07894 27.4873 4.28173 29.7042 4.28173C31.921 4.28173 33.7183 6.07894 33.7183 8.29585Z" fill="#303030"/>
<path fill-rule="evenodd" clip-rule="evenodd" d="M7.94775 14.5123C6.15804 16.8182 5.46124 19.7409 5.35216 21.7272V50.1923C5.35216 50.5867 5.48993 51.3853 5.90949 51.9997C6.22071 52.4552 6.78098 52.9861 8.2001 52.9861C9.69004 52.9861 10.2989 52.4595 10.6443 52.0008C11.0637 51.4441 11.2892 50.69 11.4054 49.9884V38.5353C11.4054 37.0573 12.6035 35.8592 14.0814 35.8592C14.1435 35.8592 14.2051 35.8613 14.2661 35.8654C14.3272 35.8613 14.3888 35.8592 14.4508 35.8592H21.4286V31.0694H14.6167C13.1387 31.0694 11.9406 29.8713 11.9406 28.3933V24.2142C11.8853 22.9676 12.1292 21.1449 13.152 19.5281C14.3061 17.7038 16.3246 16.3692 19.2116 16.3692C22.0589 16.3692 24.0996 17.6468 25.3253 19.3846C26.4354 20.9584 26.8005 22.7852 26.761 24.1238L26.7807 28.381V28.3933V50.1923C26.7807 50.9105 26.9783 51.639 27.3537 52.1239C27.6375 52.49 28.2164 52.9861 29.6949 52.9861C31.103 52.9861 31.6821 52.4867 31.991 52.0741C32.3956 51.5325 32.5749 50.7735 32.5749 50.1923V18.9817C32.5749 17.5038 33.7732 16.3056 35.251 16.3056C36.7292 16.3056 37.927 17.5038 37.927 18.9817V50.1923C37.927 51.6074 37.5444 53.5829 36.2786 55.2774C34.9164 57.1003 32.7172 58.3383 29.6949 58.3383C26.7422 58.3383 24.5261 57.2132 23.1226 55.4015C21.8107 53.7081 21.4286 51.7016 21.4286 50.1923V41.2113H16.7575V50.1923C16.7575 50.3186 16.7486 50.4444 16.7308 50.5696C16.5777 51.6443 16.1819 53.5449 14.9194 55.2212C13.5481 57.0414 11.3462 58.3383 8.2001 58.3383C4.98329 58.3383 2.78152 56.9098 1.48972 55.0183C0.306252 53.2853 0 51.3483 0 50.1923V21.6578C0 21.6139 0.00107071 21.57 0.00321158 21.5262C0.137872 18.7917 1.05101 14.669 3.7197 11.2307C6.49967 7.64905 11.0131 5.04795 17.7281 5.35463C19.2045 5.42206 20.3467 6.67361 20.2793 8.15001C20.2119 9.62646 18.9603 10.7687 17.4839 10.7012C12.4802 10.4727 9.64497 12.3257 7.94775 14.5123ZM21.4087 24.0968L21.4162 25.7173H17.2927V24.1479C17.2927 24.0977 17.2913 24.0476 17.2885 23.9976C17.263 23.5444 17.3762 22.862 17.6751 22.3894C17.8041 22.1855 17.9522 22.0427 18.133 21.9422C18.311 21.8431 18.6352 21.7213 19.2116 21.7213C19.7954 21.7213 20.1584 21.8428 20.3842 21.9616C20.6137 22.0824 20.7978 22.2512 20.9516 22.4694C21.2998 22.9631 21.4251 23.6203 21.4108 23.9769C21.4092 24.0169 21.4085 24.0568 21.4087 24.0968Z" fill="#303030"/>
</svg>
