<?xml version="1.0" encoding="UTF-8"?><svg id="Layer_2" xmlns="http://www.w3.org/2000/svg" viewBox="0 0 903 362.78"><defs><style>.cls-1{fill:#fff;fill-rule:evenodd;}</style></defs><g id="Layer_1-2"><path class="cls-1" d="M99.11,195.62c11.58,0,22.7-1.96,33.04-5.57v55.36c0,17.68,14.79,32.01,33.04,32.01s33.04-14.33,33.04-32.01V96.03h-.02c-.18-10.04-1.9-19.72-4.93-28.81-7.27,6.82-17.18,11.02-28.09,11.02-22.3,0-40.38-17.52-40.38-39.12,0-12.33,5.88-23.32,15.08-30.49C127.44,3.09,113.64,0,99.11,0,44.97,0,.98,42.83,.02,96.03h-.02V245.41c0,17.68,14.79,32.01,33.04,32.01s33.04-14.33,33.04-32.01v-55.36c10.33,3.6,21.45,5.57,33.04,5.57Zm0-56.91c22.3,0,40.38-17.52,40.38-39.12s-18.08-39.12-40.38-39.12-40.38,17.52-40.38,39.12,18.08,39.12,40.38,39.12Zm66.07-74.69c14.19,0,25.69-11.15,25.69-24.9s-11.5-24.9-25.69-24.9-25.7,11.15-25.7,24.9,11.5,24.9,25.7,24.9Zm524.91,119.15c0,54.02-44.37,97.81-99.11,97.81-11.58,0-22.7-1.96-33.04-5.57v55.36c0,17.68-14.79,32.01-33.04,32.01s-33.04-14.33-33.04-32.01V181.39h.02c.96-53.2,44.96-96.03,99.09-96.03s99.11,43.79,99.11,97.81Zm-99.11,40.9c22.3,0,40.38-17.52,40.38-39.12s-18.08-39.12-40.38-39.12-40.38,17.52-40.38,39.12,18.08,39.12,40.38,39.12Zm212.9,56.91c54.73,0,99.11-43.79,99.11-97.81s-44.38-97.81-99.11-97.81-98.14,42.83-99.1,96.03h-.01v149.38c0,17.68,14.79,32.01,33.03,32.01s33.04-14.33,33.04-32.01v-55.36c10.33,3.6,21.45,5.57,33.04,5.57Zm40.38-96.03c0,21.61-18.08,39.12-40.38,39.12s-40.38-17.52-40.38-39.12,18.08-39.12,40.38-39.12,40.38,17.52,40.38,39.12ZM264.29,252.53c0,13.75-11.5,24.9-25.7,24.9s-25.7-11.15-25.7-24.9,11.5-24.9,25.7-24.9,25.7,11.15,25.7,24.9Zm146.83-62.47c-10.33,3.6-21.45,5.57-33.04,5.57s-22.7-1.96-33.04-5.57v55.36c0,17.68-14.79,32.01-33.04,32.01s-33.04-14.33-33.04-32.01V96.03h.02C279.95,42.83,323.95,0,378.09,0s98.13,42.83,99.09,96.03h.02V245.41c0,17.68-14.79,32.01-33.04,32.01s-33.04-14.33-33.04-32.01v-55.36Zm7.34-90.47c0,21.61-18.08,39.12-40.38,39.12s-40.38-17.52-40.38-39.12,18.08-39.12,40.38-39.12,40.38,17.52,40.38,39.12Z"/></g></svg>